<svg width="36" height="45" viewBox="0 0 36 45" fill="none" xmlns="http://www.w3.org/2000/svg">
<path d="M31.2612 12.0716C31.2575 12.0321 31.2504 11.993 31.2415 11.955C31.2476 11.994 31.2542 12.0326 31.2612 12.0716Z" fill="#F68924"/>
<path d="M24.2117 15.7595C23.1988 15.7557 22.2048 15.75 21.1459 15.7523C20.6533 15.7533 20.254 15.3496 20.254 14.8516V5.48231C20.1843 5.16573 20.1472 4.83629 20.1472 4.49829C20.1472 2.07038 22.0453 0.0918795 24.421 0H17.8585C16.6133 0 15.6038 1.02162 15.6038 4.54113C15.6357 17.1524 15.6673 29.7637 15.6993 42.3755C15.6997 42.6121 15.8098 42.8235 15.9566 43.0077C16.4571 43.6356 17.0532 44.3088 17.6012 44.871C17.7663 45.0405 18.0354 45.0434 18.2043 44.8777C18.7773 44.3159 19.3945 43.6437 19.9232 43.0158C20.0799 42.8297 20.1947 42.6116 20.1947 42.3669V21.3908C20.1006 21.0261 20.0503 20.6439 20.0503 20.2497C20.0503 17.8618 21.8887 15.9085 24.2112 15.759L24.2117 15.7595Z" fill="#EBAB21"/>
<path d="M26.7431 16.3658C26.6217 16.0135 26.2901 15.7607 25.9006 15.7617C25.5303 15.7626 25.1681 15.7621 24.8101 15.7617C24.6092 15.7617 24.4102 15.7607 24.2117 15.7598C21.8892 15.9088 20.0508 17.862 20.0508 20.2504C20.0508 20.6446 20.1011 21.0274 20.1952 21.3916V21.1507C20.1929 21.0978 20.1825 20.7498 20.4568 20.4808C20.7385 20.2047 21.0942 20.2343 21.1441 20.239L25.9029 20.2595C26.3945 20.2595 26.793 19.8563 26.793 19.3588V16.6624C26.793 16.5586 26.7756 16.4586 26.7431 16.3658Z" fill="#E99B23"/>
<path d="M22.9039 40.4009C24.047 39.1474 25.3525 37.6055 26.4265 36.2758C26.5742 36.093 26.6805 35.8802 26.6805 35.6441V23.4165C26.6805 22.9171 26.2806 22.5125 25.7871 22.5125H23.1753C22.6818 22.5125 22.282 22.9171 22.282 23.4165C22.282 28.834 22.282 34.7272 22.282 40.1448C22.282 40.4737 22.6833 40.6427 22.9039 40.4009Z" fill="#E99B23"/>
<path d="M33.3773 0.0129395H24.3954C22.0198 0.104819 20.1216 2.08332 20.1216 4.51123C20.1216 4.84923 20.1587 5.17819 20.2284 5.49524V5.39337C20.2284 4.89588 20.6268 4.49266 21.1184 4.49266L29.015 4.50456L34.7707 4.51313C35.2623 4.51313 35.6608 4.10991 35.6608 3.61243V2.32421C35.6608 1.04789 34.6386 0.0134155 33.3773 0.0134155V0.0129395Z" fill="#E99B23"/>
<path d="M12.0279 15.9489C11.7706 15.8413 11.4893 15.7813 11.1934 15.7804C9.25945 15.7756 7.32505 15.7704 5.39112 15.7656C4.90093 15.7642 4.50389 15.3624 4.50342 14.8658C4.50059 11.7234 4.49824 8.56043 4.49542 5.41416C4.49542 5.31751 4.51047 5.22421 4.53823 5.13661C4.51 4.93238 4.49542 4.72339 4.49542 4.51107C4.49542 2.02651 6.4858 0.0123047 8.94144 0.0113525C6.72196 0.0113525 4.50295 0.0113525 2.28346 0.0113525C1.02224 0.0113525 0 1.04631 0 2.32215V19.3565C0 19.854 0.398453 20.2572 0.890052 20.2572H8.00388C8.39104 20.2572 8.72034 20.5076 8.84265 20.8575C8.81678 20.6628 8.80314 20.4638 8.80314 20.262C8.80314 18.224 10.1631 16.5025 12.0279 15.9489Z" fill="#EBAB21"/>
<path d="M11.1933 0.0113525H8.94091C6.48528 0.0118286 4.49536 2.02651 4.49536 4.51155C4.49536 4.72387 4.51042 4.93238 4.53817 5.13709C4.65343 4.77433 4.98978 4.51155 5.38682 4.51155H8.00194C8.49401 4.51155 8.8934 4.91524 8.8934 5.41368V12.6112C8.8934 13.1087 9.29185 13.5119 9.78345 13.5119H12.4988C12.9904 13.5119 13.3888 13.1087 13.3888 12.6112V2.23265C13.3883 1.00584 12.4056 0.0113525 11.1933 0.0113525Z" fill="#E99B23"/>
<path d="M12.0279 15.9489C10.1631 16.5026 8.80314 18.224 8.80314 20.2621C8.80314 20.4639 8.81678 20.6629 8.84265 20.8576C8.87558 20.9514 8.89346 21.0528 8.89346 21.158V28.3536C8.89346 28.854 8.4903 29.2582 7.99588 29.2543C7.12559 29.2467 6.25482 29.2396 5.38453 29.232C4.8967 29.2277 4.50342 28.8268 4.50201 28.3336C4.50012 27.4425 4.49824 24.3019 4.49636 23.4107C4.49542 22.9142 4.09744 22.5119 3.60631 22.5119H0.890052C0.398453 22.5114 0 22.9147 0 23.4121V26.636C0 26.876 0.0945562 27.1054 0.262499 27.2744C4.38769 31.438 8.51335 36.2167 12.6385 40.3803C12.9156 40.6598 13.3884 40.4613 13.3884 40.0652V18.0065C13.3884 17.0777 12.8267 16.2822 12.0279 15.948V15.9489Z" fill="#E99B23"/>
<path d="M34.332 6.95345C34.0619 6.83063 33.7632 6.7616 33.448 6.7616C30.4806 6.7616 27.5136 6.7616 24.5461 6.7616C23.33 6.7616 22.3445 7.75894 22.3445 8.98956L22.3318 12.6067C22.3299 13.106 22.7293 13.5116 23.2228 13.5116H25.836C26.3281 13.5116 26.727 13.108 26.727 12.61V12.1634C26.727 11.6655 27.1259 11.2618 27.618 11.2618H30.3314C30.7525 11.2618 31.1053 11.5579 31.1984 11.9554C31.1636 11.7293 31.1453 11.4979 31.1453 11.2618C31.1453 9.22949 32.4879 7.51234 34.3315 6.95345H34.332Z" fill="#EBAB21"/>
<path d="M35.6154 21.9525C35.6135 19.4765 35.6121 17.5584 35.6111 15.7613C35.6097 13.5719 35.6083 11.562 35.605 8.94129C35.6041 8.05581 35.0814 7.29507 34.3325 6.95374C32.4889 7.51263 31.1463 9.22978 31.1463 11.2621C31.1463 11.4977 31.1646 11.7296 31.1994 11.9557C31.2084 11.9938 31.215 12.0323 31.2192 12.0723C31.222 12.1023 31.2239 12.1328 31.2239 12.1633C31.2291 17.7289 31.2342 23.295 31.2399 28.8606C31.2399 29.0972 31.1482 29.3247 30.9844 29.4937C30.4162 30.0788 29.8484 30.6634 29.2801 31.2485C29.1159 31.4175 29.0242 31.6451 29.0242 31.8821V33.3993C29.0242 33.7231 29.4118 33.8844 29.6367 33.654C31.5457 31.7008 33.4547 29.2295 35.3641 27.2763C35.5293 27.1073 35.6219 26.8787 35.6219 26.6412C35.6205 25.3853 35.6177 22.8617 35.6168 21.9534L35.6154 21.9525Z" fill="#E99B23"/>
</svg>
